<svg width="321" height="321" viewBox="0 0 321 321" fill="none" xmlns="http://www.w3.org/2000/svg">
<path d="M119.232 238.606C98.8231 234.452 38.4109 224.231 38.4109 176.242C38.4109 126.224 73.9007 113.583 122.07 113.583C167.055 113.583 155.679 64.1487 216.521 64.1487C268.035 64.1487 304.167 141.831 240.955 205.048C202.583 243.414 142.306 243.318 119.232 238.606Z" fill="#002055"/>
<path opacity="0.9" d="M119.232 238.606C98.8231 234.452 38.4109 224.231 38.4109 176.242C38.4109 126.224 73.9007 113.583 122.07 113.583C167.055 113.583 155.679 64.1487 216.521 64.1487C268.035 64.1487 304.167 141.831 240.955 205.048C202.583 243.414 142.306 243.318 119.232 238.606Z" fill="white"/>
<path d="M157.406 272.022C226.153 272.022 281.883 268.768 281.883 264.754C281.883 260.741 226.153 257.487 157.406 257.487C88.6586 257.487 32.9282 260.741 32.9282 264.754C32.9282 268.768 88.6586 272.022 157.406 272.022Z" fill="#F5F5F5"/>
<path d="M211.982 246.143H144.771C143.478 246.156 142.196 245.902 141.005 245.397C139.814 244.892 138.741 244.147 137.851 243.208C136.962 242.27 136.276 241.157 135.836 239.941C135.396 238.725 135.212 237.431 135.295 236.14L144.026 69.5157C144.193 66.8269 145.372 64.3008 147.325 62.4453C149.278 60.5897 151.861 59.5423 154.555 59.5134H221.76C223.053 59.4992 224.336 59.7523 225.528 60.2568C226.719 60.7613 227.793 61.5064 228.683 62.4454C229.574 63.3843 230.26 64.4969 230.701 65.7136C231.141 66.9302 231.325 68.2246 231.242 69.5157L222.511 236.14C222.342 238.829 221.163 241.354 219.211 243.209C217.258 245.064 214.675 246.112 211.982 246.143Z" fill="#002055"/>
<path d="M221.413 66.2223H154.202C152.494 66.2431 150.858 66.9082 149.62 68.0844C148.382 69.2605 147.634 70.861 147.525 72.5652L139.115 233.065C139.062 233.884 139.178 234.704 139.457 235.476C139.736 236.247 140.171 236.953 140.735 237.548C141.299 238.144 141.98 238.616 142.736 238.936C143.491 239.256 144.304 239.417 145.124 239.408H212.335C214.043 239.387 215.679 238.722 216.917 237.546C218.156 236.37 218.904 234.769 219.012 233.065L227.422 72.5652C227.475 71.7467 227.359 70.926 227.08 70.1546C226.801 69.3832 226.366 68.6777 225.802 68.0823C225.238 67.4868 224.557 67.0143 223.802 66.6942C223.046 66.3741 222.233 66.2135 221.413 66.2223Z" fill="#002055"/>
<path opacity="0.8" d="M221.413 66.2223H154.202C152.494 66.2431 150.858 66.9082 149.62 68.0844C148.382 69.2605 147.634 70.861 147.525 72.5652L139.115 233.065C139.062 233.884 139.178 234.704 139.457 235.476C139.736 236.247 140.171 236.953 140.735 237.548C141.299 238.144 141.98 238.616 142.736 238.936C143.491 239.256 144.304 239.417 145.124 239.408H212.335C214.043 239.387 215.679 238.722 216.917 237.546C218.156 236.37 218.904 234.769 219.012 233.065L227.422 72.5652C227.475 71.7467 227.359 70.926 227.08 70.1546C226.801 69.3832 226.366 68.6777 225.802 68.0823C225.238 67.4868 224.557 67.0143 223.802 66.6942C223.046 66.3741 222.233 66.2135 221.413 66.2223Z" fill="white"/>
<path d="M227.268 59.5134H221.779C223.073 59.4992 224.355 59.7523 225.547 60.2568C226.738 60.7613 227.813 61.5064 228.703 62.4454C229.593 63.3843 230.28 64.4969 230.72 65.7136C231.16 66.9302 231.344 68.2246 231.261 69.5157L222.53 236.14C222.363 238.829 221.185 241.355 219.231 243.211C217.278 245.066 214.695 246.114 212.001 246.143H217.49C220.184 246.114 222.767 245.066 224.721 243.211C226.674 241.355 227.852 238.829 228.019 236.14L236.75 69.5157C236.833 68.2246 236.649 66.9302 236.209 65.7136C235.769 64.4969 235.082 63.3843 234.192 62.4454C233.302 61.5064 232.227 60.7613 231.036 60.2568C229.844 59.7523 228.562 59.4992 227.268 59.5134Z" fill="#002055"/>
<path opacity="0.4" d="M227.268 59.5134H221.779C223.073 59.4992 224.355 59.7523 225.547 60.2568C226.738 60.7613 227.813 61.5064 228.703 62.4454C229.593 63.3843 230.28 64.4969 230.72 65.7136C231.16 66.9302 231.344 68.2246 231.261 69.5157L222.53 236.14C222.363 238.829 221.185 241.355 219.231 243.211C217.278 245.066 214.695 246.114 212.001 246.143H217.49C220.184 246.114 222.767 245.066 224.721 243.211C226.674 241.355 227.852 238.829 228.019 236.14L236.75 69.5157C236.833 68.2246 236.649 66.9302 236.209 65.7136C235.769 64.4969 235.082 63.3843 234.192 62.4454C233.302 61.5064 232.227 60.7613 231.036 60.2568C229.844 59.7523 228.562 59.4992 227.268 59.5134Z" fill="white"/>
<path opacity="0.4" d="M154.196 66.2223L163.325 239.466H187.079L177.95 66.2544H154.196V66.2223Z" fill="white"/>
<path opacity="0.4" d="M191.38 239.434H196.728L187.599 66.2223H182.251L191.38 239.434Z" fill="white"/>
<path d="M157.585 56.5923H159.941C160.018 56.5923 160.092 56.5619 160.146 56.5077C160.2 56.4535 160.23 56.38 160.23 56.3034C160.23 56.2268 160.2 56.1533 160.146 56.0991C160.092 56.045 160.018 56.0145 159.941 56.0145H157.585C157.509 56.0145 157.435 56.045 157.381 56.0991C157.327 56.1533 157.296 56.2268 157.296 56.3034C157.296 56.38 157.327 56.4535 157.381 56.5077C157.435 56.5619 157.509 56.5923 157.585 56.5923Z" fill="#002055"/>
<path d="M140.457 75.6083C140.604 72.8606 140.489 69.9266 141.099 67.2623C142.46 61.0734 148.02 56.8362 154.247 56.6244C154.613 56.6244 154.619 56.0338 154.247 56.0466C151.521 56.1063 148.867 56.9378 146.595 58.4446C144.322 59.9513 142.523 62.0717 141.407 64.5595C139.892 67.9942 140.123 71.9682 139.917 75.6404C139.917 76.0128 140.476 76.0128 140.495 75.6404L140.457 75.6083Z" fill="#002055"/>
<path d="M193.101 100.601H177.693C177.015 100.609 176.343 100.477 175.719 100.212C175.095 99.9483 174.532 99.5581 174.065 99.0664C173.599 98.5746 173.239 97.9918 173.008 97.3545C172.777 96.7172 172.68 96.0391 172.724 95.3627L173.533 79.9547C173.619 78.5459 174.235 77.222 175.259 76.2499C176.282 75.2777 177.636 74.7296 179.047 74.716H194.455C195.133 74.7084 195.805 74.8408 196.429 75.105C197.052 75.3692 197.615 75.7595 198.081 76.2514C198.547 76.7433 198.906 77.3261 199.136 77.9634C199.366 78.6007 199.462 79.2786 199.418 79.9547L198.616 95.3627C198.527 96.7705 197.909 98.0927 196.886 99.0642C195.863 100.036 194.511 100.585 193.101 100.601Z" fill="white"/>
<path d="M183.265 89.9827C182.185 88.8003 181.548 87.2804 181.461 85.6813H181.397C180.755 85.6813 180.306 84.9944 180.351 84.1533C180.396 83.3123 180.935 82.6254 181.558 82.6254H181.718L181.834 82.2145C185.551 82.0155 187.612 80.7893 188.748 79.7877C188.984 80.2896 189.323 80.736 189.744 81.0977C190.164 81.4595 190.656 81.7285 191.188 81.8871C191.245 82.1246 191.297 82.375 191.335 82.6254H191.496C192.138 82.6254 192.594 83.3059 192.549 84.1533C192.504 85.0008 191.958 85.6813 191.335 85.6813H191.271C191.01 87.2216 190.297 88.6495 189.223 89.7837C190.102 90.063 191.028 90.157 191.945 90.0597C195.701 89.8415 193.717 82.1182 191.695 79.3512C190.462 77.6563 189.769 76.8666 189.069 77.1812C188.286 76.7511 183.58 74.8122 180.537 80.5196C177.378 86.4453 176.441 91.8381 183.265 89.9827Z" fill="#002055"/>
<path d="M193.608 94.1365L189.724 92.8975C189.724 92.8975 186.366 94.1815 185.564 97.3915C185.101 94.1815 181.878 92.8975 181.878 92.8975L177.866 94.1365C175.458 94.4704 174.29 96.5312 173.725 98.6626C174.192 99.2692 174.793 99.759 175.482 100.093C176.17 100.428 176.927 100.597 177.693 100.589H193.101C193.894 100.585 194.676 100.411 195.396 100.079C196.116 99.7465 196.756 99.2636 197.274 98.6626C196.933 96.5312 195.977 94.4704 193.608 94.1365Z" fill="#002055"/>
<path d="M204.252 98.3351C204.275 98.0317 204.275 97.7269 204.252 97.4235L205.787 96.101C205.65 95.4646 205.434 94.8478 205.145 94.2648L203.174 94.3676C202.832 93.8827 202.421 93.4501 201.954 93.0836L202.159 91.119C201.594 90.7926 200.99 90.5381 200.362 90.3615L198.924 91.806C198.624 91.765 198.321 91.7435 198.019 91.7418C197.711 91.7435 197.405 91.765 197.1 91.806L195.861 90.3486C195.209 90.5262 194.58 90.7805 193.987 91.1062V93.09C193.481 93.4571 193.026 93.8888 192.632 94.374L190.674 94.2713C190.319 94.8491 190.031 95.465 189.814 96.1074L191.207 97.4299C191.147 97.7305 191.111 98.0353 191.098 98.3415C191.075 98.6428 191.075 98.9454 191.098 99.2468L189.57 100.569C189.71 101.205 189.925 101.821 190.212 102.405L192.183 102.303C192.529 102.785 192.939 103.217 193.403 103.587L193.204 105.551C193.767 105.878 194.368 106.132 194.995 106.309L196.394 104.851C196.694 104.892 196.997 104.914 197.3 104.916C197.604 104.914 197.909 104.892 198.211 104.851L199.457 106.309C200.108 106.129 200.737 105.875 201.331 105.551V103.587C201.834 103.216 202.289 102.785 202.686 102.303L204.644 102.405C204.999 101.829 205.286 101.213 205.498 100.569L204.156 99.2403C204.208 98.941 204.24 98.6386 204.252 98.3351ZM197.563 100.396C197.295 100.401 197.03 100.35 196.783 100.247C196.536 100.144 196.314 99.9908 196.13 99.7969C195.945 99.6031 195.804 99.373 195.713 99.1213C195.623 98.8696 195.586 98.6019 195.605 98.3351C195.64 97.7797 195.884 97.2582 196.288 96.8749C196.691 96.4916 197.225 96.2748 197.781 96.2679C198.046 96.2672 198.309 96.3212 198.552 96.4267C198.796 96.5322 199.015 96.6869 199.195 96.881C199.376 97.0751 199.515 97.3044 199.603 97.5546C199.691 97.8049 199.726 98.0706 199.707 98.3351C199.673 98.885 199.434 99.4021 199.037 99.7839C198.64 100.166 198.114 100.384 197.563 100.396Z" fill="#002055"/>
<path opacity="0.4" d="M204.252 98.3351C204.275 98.0317 204.275 97.7269 204.252 97.4235L205.787 96.101C205.65 95.4646 205.434 94.8478 205.145 94.2648L203.174 94.3676C202.832 93.8827 202.421 93.4501 201.954 93.0836L202.159 91.119C201.594 90.7926 200.99 90.5381 200.362 90.3615L198.924 91.806C198.624 91.765 198.321 91.7435 198.019 91.7418C197.711 91.7435 197.405 91.765 197.1 91.806L195.861 90.3486C195.209 90.5262 194.58 90.7805 193.987 91.1062V93.09C193.481 93.4571 193.026 93.8888 192.632 94.374L190.674 94.2713C190.319 94.8491 190.031 95.465 189.814 96.1074L191.207 97.4299C191.147 97.7305 191.111 98.0353 191.098 98.3415C191.075 98.6428 191.075 98.9454 191.098 99.2468L189.57 100.569C189.71 101.205 189.925 101.821 190.212 102.405L192.183 102.303C192.529 102.785 192.939 103.217 193.403 103.587L193.204 105.551C193.767 105.878 194.368 106.132 194.995 106.309L196.394 104.851C196.694 104.892 196.997 104.914 197.3 104.916C197.604 104.914 197.909 104.892 198.211 104.851L199.457 106.309C200.108 106.129 200.737 105.875 201.331 105.551V103.587C201.834 103.216 202.289 102.785 202.686 102.303L204.644 102.405C204.999 101.829 205.286 101.213 205.498 100.569L204.156 99.2403C204.208 98.941 204.24 98.6386 204.252 98.3351ZM197.563 100.396C197.295 100.401 197.03 100.35 196.783 100.247C196.536 100.144 196.314 99.9908 196.13 99.7969C195.945 99.6031 195.804 99.373 195.713 99.1213C195.623 98.8696 195.586 98.6019 195.605 98.3351C195.64 97.7797 195.884 97.2582 196.288 96.8749C196.691 96.4916 197.225 96.2748 197.781 96.2679C198.046 96.2672 198.309 96.3212 198.552 96.4267C198.796 96.5322 199.015 96.6869 199.195 96.881C199.376 97.0751 199.515 97.3044 199.603 97.5546C199.691 97.8049 199.726 98.0706 199.707 98.3351C199.673 98.885 199.434 99.4021 199.037 99.7839C198.64 100.166 198.114 100.384 197.563 100.396Z" fill="white"/>
<path d="M197.563 100.396C197.295 100.401 197.03 100.351 196.783 100.247C196.536 100.144 196.314 99.9909 196.13 99.797C195.945 99.6031 195.804 99.373 195.713 99.1214C195.623 98.8697 195.586 98.602 195.605 98.3352C195.64 97.7798 195.884 97.2583 196.288 96.875C196.691 96.4917 197.224 96.2749 197.781 96.268C198.046 96.2672 198.309 96.3213 198.552 96.4268C198.796 96.5323 199.015 96.687 199.195 96.8811C199.376 97.0751 199.515 97.3045 199.603 97.5547C199.691 97.8049 199.726 98.0706 199.707 98.3352C199.673 98.8851 199.434 99.4022 199.037 99.7839C198.64 100.166 198.113 100.384 197.563 100.396Z" fill="white"/>
<path d="M184.325 171.652H182.135L182.335 167.889H184.517L184.325 171.652Z" fill="#002055"/>
<path d="M194.282 171.652H192.099L192.427 165.45H194.609L194.282 171.652Z" fill="#002055"/>
<path d="M204.246 171.652H202.063L202.512 163.01H204.702L204.246 171.652Z" fill="#002055"/>
<path d="M214.21 171.652H212.021L212.605 160.577H214.788L214.21 171.652Z" fill="white"/>
<path d="M154.131 171.652H165.238C166.734 171.637 168.169 171.055 169.254 170.025C170.339 168.995 170.994 167.592 171.086 166.098C171.132 165.381 171.03 164.663 170.785 163.988C170.541 163.312 170.16 162.695 169.666 162.173C169.171 161.652 168.575 161.238 167.914 160.958C167.252 160.678 166.54 160.537 165.822 160.545H154.722C153.226 160.56 151.791 161.141 150.705 162.171C149.62 163.202 148.966 164.605 148.873 166.098C148.827 166.815 148.93 167.533 149.174 168.207C149.418 168.882 149.798 169.5 150.292 170.021C150.785 170.542 151.381 170.956 152.042 171.236C152.702 171.517 153.414 171.658 154.131 171.652Z" fill="white"/>
<path d="M154.651 161.784H165.758C167.104 161.769 168.403 162.275 169.385 163.197C170.366 164.118 170.953 165.383 171.022 166.727C171.054 166.528 171.074 166.323 171.086 166.118C171.132 165.401 171.03 164.682 170.786 164.007C170.541 163.331 170.16 162.714 169.666 162.193C169.172 161.671 168.575 161.258 167.914 160.977C167.252 160.697 166.54 160.557 165.822 160.564H154.722C153.226 160.579 151.791 161.16 150.705 162.191C149.62 163.221 148.966 164.624 148.873 166.118C148.873 166.323 148.873 166.528 148.873 166.727C149.106 165.358 149.812 164.113 150.867 163.21C151.923 162.306 153.262 161.802 154.651 161.784Z" fill="#002055"/>
<path opacity="0.3" d="M154.651 161.784H165.758C167.104 161.769 168.403 162.275 169.385 163.197C170.366 164.118 170.953 165.383 171.022 166.727C171.054 166.528 171.074 166.323 171.086 166.118C171.132 165.401 171.03 164.682 170.786 164.007C170.541 163.331 170.16 162.714 169.666 162.193C169.172 161.671 168.575 161.258 167.914 160.977C167.252 160.697 166.54 160.557 165.822 160.564H154.722C153.226 160.579 151.791 161.16 150.705 162.191C149.62 163.221 148.966 164.624 148.873 166.118C148.873 166.323 148.873 166.528 148.873 166.727C149.106 165.358 149.812 164.113 150.867 163.21C151.923 162.306 153.262 161.802 154.651 161.784Z" fill="white"/>
<path d="M158.196 169.962C160.451 167.764 160.588 164.248 158.502 162.107C156.416 159.966 152.896 160.012 150.642 162.21C148.387 164.407 148.25 167.924 150.336 170.064C152.422 172.205 155.941 172.159 158.196 169.962Z" fill="#002055"/>
<path d="M147.872 219.526H145.689L145.952 214.544H148.135L147.872 219.526Z" fill="#002055"/>
<path d="M155.974 218.306H153.791L153.894 216.373H156.077L155.974 218.306Z" fill="#002055"/>
<path d="M163.98 218.916H161.797L161.957 215.763H164.147L163.98 218.916Z" fill="#002055"/>
<path d="M172.05 218.306H169.86L169.963 216.373H172.152L172.05 218.306Z" fill="#002055"/>
<path d="M180.023 219.526H177.834L178.097 214.544H180.28L180.023 219.526Z" fill="#002055"/>
<path d="M188.119 218.306H185.936L186.039 216.373H188.222L188.119 218.306Z" fill="#002055"/>
<path d="M196.124 218.916H193.942L194.109 215.763H196.291L196.124 218.916Z" fill="#002055"/>
<path d="M204.195 218.306H202.012L202.108 216.373H204.297L204.195 218.306Z" fill="#002055"/>
<path d="M212.168 219.526H209.985L210.242 214.544H212.431L212.168 219.526Z" fill="#002055"/>
<g opacity="0.3">
<path d="M147.872 219.526H145.689L145.952 214.544H148.135L147.872 219.526Z" fill="black"/>
<path d="M155.974 218.306H153.791L153.894 216.373H156.077L155.974 218.306Z" fill="black"/>
<path d="M163.979 218.916H161.797L161.957 215.763H164.146L163.979 218.916Z" fill="black"/>
<path d="M172.05 218.306H169.86L169.963 216.373H172.152L172.05 218.306Z" fill="black"/>
<path d="M180.023 219.526H177.834L178.097 214.544H180.28L180.023 219.526Z" fill="black"/>
<path d="M188.119 218.306H185.936L186.039 216.373H188.222L188.119 218.306Z" fill="black"/>
<path d="M196.124 218.916H193.942L194.109 215.763H196.291L196.124 218.916Z" fill="black"/>
<path d="M204.195 218.306H202.012L202.108 216.373H204.297L204.195 218.306Z" fill="black"/>
<path d="M212.168 219.526H209.985L210.242 214.544H212.431L212.168 219.526Z" fill="black"/>
</g>
<path d="M173.853 220.347C173.886 219.795 173.982 217.888 174.014 217.343C174.046 216.797 174.142 214.884 174.168 214.338C174.194 213.95 174.139 213.561 174.007 213.195C173.876 212.829 173.67 212.495 173.403 212.212C173.136 211.929 172.814 211.705 172.456 211.553C172.098 211.4 171.713 211.324 171.324 211.327C170.514 211.337 169.737 211.653 169.15 212.211C168.563 212.77 168.209 213.529 168.159 214.338C168.127 214.884 168.031 216.791 167.998 217.343C167.966 217.895 167.87 219.795 167.844 220.347C167.82 220.735 167.875 221.123 168.007 221.488C168.139 221.853 168.345 222.187 168.612 222.469C168.879 222.751 169.201 222.975 169.558 223.127C169.915 223.279 170.3 223.355 170.688 223.352C171.498 223.342 172.273 223.027 172.86 222.47C173.447 221.913 173.802 221.155 173.853 220.347Z" fill="#002055"/>
<path d="M152.725 198.423H163.838C165.334 198.408 166.768 197.827 167.852 196.796C168.936 195.766 169.59 194.363 169.681 192.87C169.727 192.153 169.626 191.435 169.382 190.759C169.138 190.084 168.758 189.466 168.264 188.945C167.77 188.424 167.174 188.01 166.513 187.73C165.852 187.449 165.14 187.309 164.423 187.316H153.31C151.813 187.331 150.378 187.912 149.293 188.943C148.208 189.973 147.553 191.376 147.461 192.87C147.415 193.586 147.517 194.305 147.762 194.98C148.006 195.656 148.388 196.273 148.882 196.795C149.376 197.316 149.972 197.73 150.634 198.01C151.295 198.29 152.007 198.431 152.725 198.423Z" fill="white"/>
<path d="M153.245 188.536H164.352C165.697 188.521 166.996 189.028 167.976 189.949C168.957 190.871 169.542 192.136 169.61 193.48C169.644 193.278 169.666 193.074 169.674 192.87C169.721 192.153 169.619 191.435 169.376 190.759C169.132 190.084 168.751 189.466 168.258 188.945C167.764 188.424 167.168 188.01 166.507 187.73C165.846 187.449 165.134 187.309 164.416 187.316H153.31C151.813 187.331 150.378 187.912 149.293 188.943C148.208 189.973 147.553 191.376 147.461 192.87C147.461 193.075 147.461 193.281 147.461 193.48C147.691 192.108 148.397 190.861 149.455 189.957C150.512 189.053 151.854 188.55 153.245 188.536Z" fill="#002055"/>
<path opacity="0.3" d="M153.245 188.536H164.352C165.697 188.521 166.996 189.028 167.976 189.949C168.957 190.871 169.542 192.136 169.61 193.48C169.644 193.278 169.666 193.074 169.674 192.87C169.721 192.153 169.619 191.435 169.376 190.759C169.132 190.084 168.751 189.466 168.258 188.945C167.764 188.424 167.168 188.01 166.507 187.73C165.846 187.449 165.134 187.309 164.416 187.316H153.31C151.813 187.331 150.378 187.912 149.293 188.943C148.208 189.973 147.553 191.376 147.461 192.87C147.461 193.075 147.461 193.281 147.461 193.48C147.691 192.108 148.397 190.861 149.455 189.957C150.512 189.053 151.854 188.55 153.245 188.536Z" fill="white"/>
<path d="M158.574 192.87C158.666 191.376 159.321 189.973 160.406 188.943C161.491 187.912 162.926 187.331 164.423 187.316C165.141 187.309 165.852 187.449 166.513 187.73C167.174 188.01 167.77 188.424 168.264 188.945C168.758 189.466 169.138 190.084 169.382 190.759C169.626 191.435 169.727 192.153 169.681 192.87C169.59 194.363 168.936 195.766 167.852 196.796C166.768 197.827 165.334 198.408 163.838 198.423C163.12 198.431 162.408 198.29 161.747 198.01C161.085 197.73 160.489 197.316 159.995 196.795C159.501 196.273 159.119 195.656 158.875 194.98C158.63 194.305 158.528 193.586 158.574 192.87Z" fill="#002055"/>
<path d="M153.817 120.696H214.428C215.222 120.688 215.984 120.38 216.561 119.833C217.137 119.286 217.485 118.542 217.535 117.749C217.559 117.369 217.504 116.988 217.375 116.63C217.245 116.272 217.042 115.944 216.78 115.668C216.518 115.392 216.202 115.172 215.852 115.023C215.501 114.874 215.123 114.799 214.743 114.802H154.125C153.331 114.811 152.57 115.119 151.995 115.666C151.42 116.213 151.073 116.957 151.024 117.749C150.998 118.13 151.052 118.512 151.181 118.871C151.31 119.23 151.512 119.558 151.775 119.835C152.037 120.112 152.354 120.331 152.706 120.479C153.057 120.628 153.435 120.701 153.817 120.696Z" fill="white"/>
<path d="M154.125 116.106H214.711C215.344 116.1 215.959 116.313 216.454 116.708C216.949 117.103 217.292 117.657 217.426 118.276C217.462 118.108 217.487 117.939 217.503 117.769C217.527 117.388 217.472 117.007 217.342 116.649C217.213 116.291 217.01 115.964 216.748 115.687C216.486 115.411 216.17 115.191 215.82 115.042C215.469 114.893 215.091 114.818 214.711 114.822H154.125C153.331 114.83 152.57 115.139 151.995 115.685C151.42 116.232 151.073 116.976 151.024 117.769C151.01 118.032 151.036 118.296 151.101 118.552C151.257 117.864 151.64 117.248 152.189 116.804C152.737 116.36 153.419 116.114 154.125 116.106Z" fill="#002055"/>
<path opacity="0.3" d="M154.125 116.106H214.711C215.344 116.1 215.959 116.313 216.454 116.708C216.949 117.103 217.292 117.657 217.426 118.276C217.462 118.108 217.487 117.939 217.503 117.769C217.527 117.388 217.472 117.007 217.342 116.649C217.213 116.291 217.01 115.964 216.748 115.687C216.486 115.411 216.17 115.191 215.82 115.042C215.469 114.893 215.091 114.818 214.711 114.822H154.125C153.331 114.83 152.57 115.139 151.995 115.685C151.42 116.232 151.073 116.976 151.024 117.769C151.01 118.032 151.036 118.296 151.101 118.552C151.257 117.864 151.64 117.248 152.189 116.804C152.737 116.36 153.419 116.114 154.125 116.106Z" fill="white"/>
<path d="M168.671 121.633C170.926 119.436 171.064 115.919 168.978 113.778C166.892 111.637 163.373 111.683 161.118 113.88C158.862 116.077 158.725 119.593 160.811 121.734C162.896 123.875 166.415 123.83 168.671 121.633Z" fill="#002055"/>
<path d="M213.369 189.454C213.387 189.178 213.347 188.901 213.253 188.641C213.158 188.381 213.012 188.143 212.821 187.942C212.631 187.742 212.401 187.583 212.146 187.475C211.891 187.367 211.617 187.313 211.34 187.316H193.454C192.878 187.323 192.326 187.547 191.908 187.944C191.49 188.34 191.238 188.88 191.201 189.454L190.841 196.285C190.823 196.561 190.863 196.838 190.957 197.098C191.051 197.358 191.198 197.596 191.389 197.797C191.579 197.998 191.809 198.157 192.064 198.264C192.319 198.372 192.593 198.426 192.87 198.423H210.756C211.332 198.416 211.884 198.192 212.302 197.796C212.719 197.399 212.972 196.86 213.009 196.285L213.369 189.454Z" fill="#002055"/>
<path d="M193.39 188.536H211.276C211.552 188.533 211.827 188.587 212.082 188.695C212.336 188.802 212.566 188.962 212.757 189.162C212.947 189.363 213.094 189.601 213.188 189.861C213.283 190.121 213.322 190.398 213.304 190.674L213.369 189.454C213.386 189.178 213.347 188.901 213.253 188.641C213.158 188.381 213.011 188.143 212.821 187.942C212.631 187.742 212.401 187.583 212.146 187.475C211.891 187.367 211.617 187.313 211.34 187.316H193.454C192.878 187.323 192.326 187.547 191.908 187.944C191.49 188.34 191.238 188.88 191.2 189.454L191.136 190.674C191.173 190.099 191.426 189.56 191.844 189.163C192.262 188.767 192.814 188.543 193.39 188.536Z" fill="#002055"/>
<path opacity="0.3" d="M193.39 188.536H211.276C211.552 188.533 211.827 188.587 212.082 188.695C212.336 188.802 212.566 188.962 212.757 189.162C212.947 189.363 213.094 189.601 213.188 189.861C213.283 190.121 213.322 190.398 213.304 190.674L213.369 189.454C213.386 189.178 213.347 188.901 213.253 188.641C213.158 188.381 213.011 188.143 212.821 187.942C212.631 187.742 212.401 187.583 212.146 187.475C211.891 187.367 211.617 187.313 211.34 187.316H193.454C192.878 187.323 192.326 187.547 191.908 187.944C191.49 188.34 191.238 188.88 191.2 189.454L191.136 190.674C191.173 190.099 191.426 189.56 191.844 189.163C192.262 188.767 192.814 188.543 193.39 188.536Z" fill="black"/>
<path d="M202.314 189.454C202.331 189.178 202.292 188.901 202.198 188.641C202.103 188.381 201.956 188.143 201.766 187.942C201.575 187.742 201.346 187.583 201.091 187.475C200.836 187.367 200.562 187.313 200.285 187.316H193.454C192.878 187.323 192.326 187.547 191.908 187.944C191.49 188.34 191.238 188.88 191.201 189.454L190.841 196.285C190.823 196.561 190.863 196.838 190.957 197.098C191.051 197.358 191.198 197.596 191.389 197.797C191.579 197.998 191.809 198.157 192.064 198.264C192.319 198.372 192.593 198.426 192.87 198.423H199.701C200.276 198.416 200.829 198.192 201.246 197.796C201.664 197.399 201.917 196.86 201.954 196.285L202.314 189.454Z" fill="white"/>
<path d="M197.569 194.751H195.386L195.585 190.989H197.768L197.569 194.751Z" fill="#002055"/>
<path d="M213.439 138.987H152.86C152.066 138.996 151.305 139.305 150.729 139.851C150.153 140.398 149.805 141.141 149.753 141.933C149.728 142.314 149.782 142.695 149.912 143.054C150.041 143.412 150.244 143.74 150.506 144.017C150.768 144.293 151.084 144.513 151.435 144.661C151.787 144.81 152.164 144.884 152.546 144.88H213.144C213.938 144.873 214.7 144.565 215.276 144.018C215.851 143.471 216.198 142.726 216.245 141.933C216.27 141.552 216.215 141.169 216.085 140.81C215.955 140.451 215.751 140.122 215.488 139.845C215.224 139.568 214.906 139.349 214.553 139.201C214.201 139.054 213.822 138.98 213.439 138.987Z" fill="#002055"/>
<path opacity="0.3" d="M152.86 140.271H213.439C214.072 140.263 214.687 140.475 215.182 140.869C215.677 141.263 216.021 141.816 216.155 142.434C216.197 142.27 216.223 142.102 216.232 141.933C216.257 141.553 216.203 141.172 216.073 140.813C215.944 140.455 215.741 140.127 215.479 139.85C215.217 139.573 214.9 139.354 214.549 139.205C214.198 139.057 213.82 138.982 213.439 138.987H152.86C152.397 138.977 151.937 139.073 151.516 139.267C151.095 139.462 150.725 139.75 150.432 140.11C150.14 140.47 149.934 140.892 149.829 141.344C149.725 141.795 149.725 142.265 149.83 142.717C149.988 142.028 150.373 141.413 150.922 140.97C151.472 140.526 152.154 140.28 152.86 140.271Z" fill="black"/>
<path d="M204.04 147.487H199.399C198.983 147.491 198.57 147.409 198.186 147.248C197.803 147.086 197.457 146.847 197.169 146.547C196.881 146.246 196.658 145.889 196.514 145.499C196.37 145.108 196.307 144.692 196.33 144.277L196.574 139.635C196.634 138.769 197.018 137.957 197.65 137.362C198.282 136.767 199.115 136.433 199.983 136.425H204.625C205.041 136.421 205.453 136.502 205.836 136.664C206.219 136.826 206.565 137.064 206.852 137.365C207.14 137.666 207.362 138.023 207.505 138.414C207.649 138.804 207.711 139.22 207.687 139.635L207.443 144.277C207.383 145.141 207 145.952 206.369 146.547C205.739 147.142 204.907 147.477 204.04 147.487Z" fill="white"/>
<path d="M203.244 143.814H201.062L201.261 140.052H203.443L203.244 143.814Z" fill="#002055"/>
<path d="M107.734 122.339L99.51 131.648C100.152 136.091 101.494 148.982 101.494 148.982C100.261 150.613 97.2502 150.151 97.2502 150.151C94.7915 144.027 93.7851 137.417 94.3098 130.84C94.8876 124.824 102.604 112.992 108.1 109.654C108.997 109.111 109.968 108.702 110.983 108.44L112.068 108.312L108.216 122.622L107.734 122.339Z" fill="#002055"/>
<path opacity="0.6" d="M107.734 122.339L99.51 131.648C100.152 136.091 101.494 148.982 101.494 148.982C100.261 150.613 97.2502 150.151 97.2502 150.151C94.7915 144.027 93.7851 137.417 94.3098 130.84C94.8876 124.824 102.604 112.992 108.1 109.654C108.997 109.111 109.968 108.702 110.983 108.44L112.068 108.312L108.216 122.622L107.734 122.339Z" fill="black"/>
<path d="M101.044 149.997L103.035 152.122C103.099 152.193 103.149 152.276 103.182 152.366L104.351 155.653C104.421 155.826 104.421 156.019 104.351 156.192L103.786 157.354C103.739 157.451 103.671 157.535 103.586 157.601C103.502 157.667 103.403 157.712 103.298 157.733L99.2339 158.574C99.1428 158.593 99.0489 158.593 98.9577 158.575C98.8664 158.557 98.7797 158.52 98.7026 158.468C98.6255 158.416 98.5596 158.35 98.5086 158.272C98.4576 158.194 98.4227 158.107 98.4058 158.015L97.6225 153.688C97.6043 153.602 97.6043 153.512 97.6225 153.425L98.1618 150.652C98.1894 150.513 98.2581 150.387 98.3589 150.288C98.4597 150.19 98.5879 150.124 98.7268 150.1L100.415 149.798C100.528 149.777 100.645 149.784 100.755 149.818C100.864 149.853 100.964 149.914 101.044 149.997Z" fill="#FAB27B"/>
<path d="M102.759 149.509L96.4284 152.379L96.345 149.316L102.187 147.069L102.759 149.509Z" fill="#002055"/>
<path opacity="0.5" d="M102.759 149.509L96.4284 152.379L96.345 149.316L102.187 147.069L102.759 149.509Z" fill="white"/>
<path d="M100.306 160.834C96.5311 174.316 98.1297 194.218 96.056 207.565C94.6308 216.758 84.8853 247.016 84.8853 247.016L93.488 249.622C93.488 249.622 104.222 222.973 106.328 215.031C109.705 202.146 114.777 177.699 114.777 177.699C114.777 177.699 116.671 170.765 115.81 169.995C114.95 169.225 100.306 160.834 100.306 160.834Z" fill="#002055"/>
<path opacity="0.3" d="M109.782 170.091L116.003 172.107L113.673 183.021C113.673 183.021 114.815 172.582 109.782 170.091Z" fill="black"/>
<path d="M86.6123 246.624L85.0715 251.51L89.2445 253.385L91.3118 248.197L86.6123 246.624Z" fill="#FAB27B"/>
<path opacity="0.2" d="M85.7007 249.52L90.1048 251.221L90.689 249.751L86.0602 248.383L85.7007 249.52Z" fill="black"/>
<path d="M84.9752 244.339L95.4975 247.215L93.5908 250.605L84.3845 247.889L84.9752 244.339Z" fill="#002055"/>
<path opacity="0.5" d="M84.9752 244.339L95.4975 247.215L93.5908 250.605L84.3845 247.889L84.9752 244.339Z" fill="white"/>
<path d="M90.1368 254.052C90.1158 254.037 90.0992 254.017 90.0891 253.993C90.0789 253.969 90.0754 253.943 90.079 253.917C90.0841 253.893 90.0967 253.87 90.1151 253.853C90.1335 253.836 90.1568 253.825 90.1818 253.821C90.2781 253.821 92.371 253.5 93.1029 254.046C93.1721 254.095 93.231 254.157 93.2762 254.228C93.3213 254.3 93.3519 254.38 93.3661 254.463C93.3905 254.557 93.3851 254.657 93.3506 254.747C93.3161 254.838 93.2542 254.916 93.1735 254.97C92.639 255.101 92.0754 255.032 91.5877 254.778C91.0838 254.579 90.5983 254.336 90.1368 254.052ZM90.5734 254.052C91.4465 254.527 92.6856 255.002 93.0387 254.771C93.09 254.771 93.1478 254.688 93.1157 254.508C93.1099 254.456 93.0918 254.406 93.0627 254.363C93.0337 254.319 92.9946 254.283 92.9488 254.258C92.887 254.208 92.8176 254.169 92.7433 254.142C92.0332 253.97 91.2966 253.935 90.5734 254.039V254.052Z" fill="#002055"/>
<path d="M90.079 254.02C90.0677 254.001 90.0618 253.978 90.0618 253.956C90.0618 253.933 90.0677 253.911 90.079 253.892C90.1111 253.834 90.7595 252.563 91.5877 252.293C91.7058 252.252 91.831 252.236 91.9557 252.244C92.0804 252.253 92.202 252.287 92.3131 252.345C92.6213 252.505 92.6598 252.704 92.6149 252.845C92.5057 253.436 90.9072 254.039 90.2202 254.071C90.2037 254.078 90.1854 254.078 90.1688 254.071C90.1508 254.071 90.1331 254.066 90.1174 254.057C90.1018 254.048 90.0885 254.035 90.079 254.02ZM92.1334 252.537C91.9865 252.481 91.8244 252.481 91.6776 252.537C91.1401 252.827 90.7052 253.275 90.4321 253.821C91.1832 253.699 92.2875 253.179 92.3581 252.826C92.3581 252.794 92.3581 252.704 92.1783 252.601H92.1077L92.1334 252.537Z" fill="#002055"/>
<path d="M89.88 253.166L84.5193 251.067C84.4212 251.026 84.3122 251.021 84.2104 251.051C84.1087 251.082 84.0206 251.146 83.9608 251.234L81.2837 255.221C81.1694 255.39 81.1262 255.597 81.1634 255.798C81.2007 255.998 81.3154 256.176 81.4827 256.293L81.6303 256.37C83.5563 257.089 85.3347 257.654 87.7422 258.604C90.5798 259.721 89.726 259.779 93.0451 261.133C95.0481 261.949 96.3129 259.805 95.504 259.362C91.7932 257.339 91.851 255.997 90.888 254.014C90.6693 253.616 90.3099 253.313 89.88 253.166Z" fill="#263238"/>
<path d="M124.856 250.605L124.953 255.311L129.504 255.747L129.78 250.605H124.856Z" fill="#FAB27B"/>
<path opacity="0.2" d="M129.665 252.787L129.729 251.555L124.882 251.754L124.914 253.192L129.665 252.787Z" fill="black"/>
<path d="M100.306 160.834C101.731 154.041 107.42 147.994 107.42 147.994L129.248 149.393C129.248 149.393 130.621 163.415 130.942 168.101C131.584 177.564 134.242 192.26 134.313 201.748C134.409 214.588 131.469 248.659 131.469 248.659L123.226 249.635C123.226 249.635 123.348 218.119 121.999 206.236C120.979 197.248 114.828 172.557 114.828 172.557C114.828 172.557 97.9243 172.223 100.306 160.834Z" fill="#002055"/>
<path d="M121.8 248.306L132.689 247.639L131.976 251.458L122.385 251.857L121.8 248.306Z" fill="#002055"/>
<path opacity="0.5" d="M121.8 248.306L132.689 247.639L131.976 251.458L122.385 251.857L121.8 248.306Z" fill="white"/>
<path d="M130.493 256.075C130.468 256.068 130.445 256.054 130.428 256.035C130.411 256.015 130.4 255.991 130.397 255.965C130.392 255.941 130.395 255.915 130.407 255.893C130.419 255.871 130.438 255.853 130.461 255.843C130.544 255.798 132.425 254.816 133.292 255.099C133.455 255.144 133.594 255.253 133.677 255.4C133.733 255.481 133.762 255.576 133.762 255.673C133.762 255.771 133.733 255.866 133.677 255.946C133.215 256.249 132.657 256.37 132.111 256.286C131.567 256.262 131.025 256.191 130.493 256.075ZM130.904 255.92C131.88 256.081 133.209 256.126 133.472 255.792C133.51 255.754 133.542 255.676 133.472 255.522C133.45 255.475 133.417 255.433 133.375 255.401C133.334 255.369 133.286 255.346 133.234 255.336C133.158 255.311 133.078 255.298 132.997 255.298C132.266 255.369 131.555 255.58 130.904 255.92Z" fill="#002055"/>
<path d="M130.422 256.062C130.406 256.047 130.392 256.03 130.384 256.01C130.375 255.99 130.37 255.968 130.371 255.946C130.371 255.882 130.583 254.47 131.276 253.943C131.374 253.866 131.486 253.81 131.607 253.778C131.727 253.746 131.853 253.738 131.976 253.757C132.316 253.802 132.419 253.982 132.425 254.123C132.515 254.72 131.205 255.818 130.563 256.049C130.556 256.053 130.547 256.056 130.538 256.056C130.529 256.056 130.52 256.053 130.512 256.049C130.499 256.057 130.484 256.062 130.469 256.064C130.453 256.067 130.437 256.066 130.422 256.062ZM131.886 253.988C131.726 253.982 131.57 254.032 131.443 254.129C131.034 254.568 130.767 255.121 130.679 255.715C131.321 255.355 132.22 254.495 132.201 254.136C132.201 254.104 132.201 254.014 131.957 253.988H131.886Z" fill="#002055"/>
<path d="M129.979 255.317L124.201 255.086C124.096 255.082 123.992 255.114 123.907 255.177C123.821 255.24 123.76 255.33 123.733 255.432L122.506 260.074C122.48 260.172 122.474 260.274 122.487 260.374C122.5 260.475 122.533 260.571 122.584 260.659C122.634 260.747 122.702 260.824 122.782 260.885C122.863 260.947 122.954 260.992 123.052 261.018C123.105 261.025 123.159 261.025 123.213 261.018C125.286 261.063 127.135 261.018 129.723 261.127C132.766 261.249 131.982 261.583 135.565 261.769C137.722 261.885 138.21 259.445 137.305 259.291C133.132 258.598 132.746 257.314 131.193 255.753C130.853 255.469 130.423 255.314 129.979 255.317Z" fill="#263238"/>
<path d="M123.155 102.9C122.776 104.113 121.826 106.161 123.155 107.991L116.6 107.349C116.6 107.349 117.3 102.515 117.704 100.929C117.968 99.908 118.308 98.7973 121.755 99.7603C123.733 100.332 123.412 102.078 123.155 102.9Z" fill="#FAB27B"/>
<path d="M117.242 101.109C113.634 98.3223 106.007 90.7723 113.326 84.179C119.418 78.6899 125.017 81.8999 126.923 85.6107C129.061 89.7644 133.908 100.865 123.155 102.9C121.178 103.272 119.117 102.553 117.242 101.109Z" fill="#FAB27B"/>
<path d="M112.087 107.567C112.087 107.567 117.146 103.124 126.757 108.986L126.622 110.36L112.177 108.96L112.087 107.567Z" fill="#002055"/>
<path opacity="0.5" d="M112.087 107.567C112.087 107.567 117.146 103.124 126.757 108.986L126.622 110.36L112.177 108.96L112.087 107.567Z" fill="white"/>
<path opacity="0.1" d="M121.775 101.59C121.775 103.073 122.23 103.844 122.763 104.229C122.862 103.777 122.993 103.333 123.155 102.9C121.865 102.335 121.775 101.59 121.775 101.59Z" fill="black"/>
<path d="M125.627 108.813C123.546 108.368 121.444 108.034 119.329 107.811C115.605 107.375 112.761 107.086 110.707 107.991C107.432 109.435 107.015 110.36 107.015 110.36L107.657 120.972C108.168 126.092 108.26 131.245 107.933 136.38C107.933 136.425 107.676 146.492 102.239 151.897C104.499 153.731 107.175 154.981 110.032 155.537L113.101 148.193L114.071 155.897C114.071 155.897 125.119 159.171 134.236 156.147C134.236 156.147 129.247 148.174 130.852 140.02C131.629 136.098 132.194 134.242 132.631 131.161C132.883 129.499 132.883 127.808 132.631 126.147L130.583 112.151C130.583 112.151 126.962 109.14 125.627 108.813Z" fill="#002055"/>
<path opacity="0.6" d="M125.627 108.813C123.546 108.368 121.444 108.034 119.329 107.811C115.605 107.375 112.761 107.086 110.707 107.991C107.432 109.435 107.015 110.36 107.015 110.36L107.657 120.972C108.168 126.092 108.26 131.245 107.933 136.38C107.933 136.425 107.676 146.492 102.239 151.897C104.499 153.731 107.175 154.981 110.032 155.537L113.101 148.193L114.071 155.897C114.071 155.897 125.119 159.171 134.236 156.147C134.236 156.147 129.247 148.174 130.852 140.02C131.629 136.098 132.194 134.242 132.631 131.161C132.883 129.499 132.883 127.808 132.631 126.147L130.583 112.151C130.583 112.151 126.962 109.14 125.627 108.813Z" fill="black"/>
<path d="M131.976 135.135C132.239 133.716 132.47 132.38 132.618 131.193C132.87 129.531 132.87 127.841 132.618 126.179L129.684 122.879C129.684 122.879 132.509 126.846 131.976 135.135Z" fill="black"/>
<path d="M158.176 120.054L160.205 114.276C160.244 114.16 160.327 114.063 160.436 114.006L163.614 112.382C163.7 112.341 163.796 112.326 163.891 112.339C163.985 112.351 164.074 112.391 164.147 112.453L166.413 114.443C166.502 114.522 166.559 114.632 166.571 114.751C166.583 114.87 166.549 114.989 166.477 115.085L164.134 118.166C164.107 118.202 164.086 118.241 164.07 118.282C163.89 118.738 162.683 121.62 160.115 122.339L160.018 122.378L159.158 122.834C159.054 122.898 158.928 122.918 158.809 122.892C158.689 122.866 158.584 122.794 158.516 122.693L157.418 121.158C157.377 121.101 157.349 121.035 157.336 120.965C157.323 120.896 157.326 120.824 157.345 120.756C157.363 120.688 157.397 120.624 157.443 120.571C157.489 120.517 157.546 120.474 157.611 120.446L157.9 120.311C157.962 120.291 158.019 120.258 158.067 120.213C158.114 120.169 158.152 120.114 158.176 120.054Z" fill="#FAB27B"/>
<path d="M125.569 108.806C129.414 109.755 132.787 112.063 135.064 115.303C137.922 118.911 141.149 122.209 144.694 125.145C144.694 125.145 152.116 123.566 156.796 119.515L159.543 123.617C159.543 123.617 148.27 132.117 143.68 131.674C139.763 131.295 132.624 126.198 132.624 126.198L129.684 122.898L125.569 108.806Z" fill="#002055"/>
<path opacity="0.6" d="M125.569 108.806C129.414 109.755 132.787 112.063 135.064 115.303C137.922 118.911 141.149 122.209 144.694 125.145C144.694 125.145 152.116 123.566 156.796 119.515L159.543 123.617C159.543 123.617 148.27 132.117 143.68 131.674C139.763 131.295 132.624 126.198 132.624 126.198L129.684 122.898L125.569 108.806Z" fill="black"/>
<path d="M157.052 119.001L161.174 124.118L158.414 124.85L155.126 120.041L157.052 119.001Z" fill="#002055"/>
<path opacity="0.5" d="M157.052 119.001L161.174 124.118L158.414 124.85L155.126 120.041L157.052 119.001Z" fill="white"/>
<path d="M129.601 94.4832V96.4734L130.942 96.2872L129.601 94.4832Z" fill="#E07F50"/>
<path d="M119.078 106.399C115.99 106.713 106.88 106.893 107.965 100.21C109.05 93.5265 107.574 90.2138 110.405 85.5079C113.236 80.8021 119.136 79.4282 124.445 80.8213C128.869 81.9769 129.228 85.0714 128.028 86.9332C126.827 88.795 126.288 89.1417 126.5 90.4642C126.712 91.7867 125.909 92.525 125.562 93.1477C125.181 93.5966 124.696 93.9467 124.15 94.1685C123.911 95.4675 123.993 96.8051 124.388 98.0655C125.03 100.511 126.339 105.647 119.078 106.399Z" fill="black"/>
<path d="M123.187 80.892C124.671 81.0458 126.117 81.461 127.456 82.1182C128.503 82.6575 129.549 83.46 129.787 84.6862C130.127 86.4517 128.76 88.1274 127.675 89.3472C127.501 89.5462 127.835 89.7773 128.002 89.5847C129.928 87.4276 131.417 84.3973 128.593 82.3301C126.987 81.2754 125.141 80.6438 123.226 80.494C123.173 80.4889 123.12 80.5049 123.079 80.5386C123.038 80.5724 123.012 80.621 123.007 80.6737C123.002 80.7265 123.018 80.7792 123.052 80.8201C123.086 80.861 123.134 80.8869 123.187 80.892Z" fill="black"/>
<path d="M110.424 85.4695C108.389 88.1081 108.293 91.5556 107.856 94.7014C107.567 96.9227 105.063 101.256 106.835 103.349C107.002 103.548 107.323 103.298 107.156 103.099C105.943 101.667 107.156 99.5614 107.567 98.0783C107.956 96.6203 108.22 95.1319 108.357 93.6293C108.633 90.9393 108.999 87.9347 110.726 85.7134C110.886 85.508 110.559 85.264 110.398 85.4695H110.424Z" fill="black"/>
<path d="M128.22 90.6953C128.182 90.7787 128.252 90.6311 128.265 90.6118C128.305 90.5349 128.354 90.4636 128.413 90.4C128.501 90.2935 128.619 90.2158 128.752 90.1769C128.884 90.138 129.026 90.1396 129.157 90.1817C129.401 90.2395 129.504 89.8671 129.26 89.8093C128.969 89.7377 128.662 89.7787 128.4 89.9239C128.138 90.0692 127.941 90.308 127.848 90.5926C127.751 90.8173 128.124 90.92 128.22 90.6953Z" fill="black"/>
<path d="M126.641 93.6228C127.052 94.8555 126.641 96.1009 125.762 96.4027C124.882 96.7044 123.836 95.9469 123.386 94.7078C122.937 93.4687 123.386 92.2297 124.266 91.9279C125.145 91.6262 126.224 92.3838 126.641 93.6228Z" fill="#FAB27B"/>
<path d="M129.684 90.522C129.626 90.9842 129.177 91.0805 128.946 91.119C128.715 91.1575 128.695 91.4208 128.74 91.761C128.785 92.1013 128.946 92.3453 129.1 92.3196C129.254 92.2939 129.35 92.0178 129.312 91.6776C129.296 91.5853 129.27 91.4949 129.235 91.4079C129.96 90.9714 129.684 90.522 129.684 90.522Z" fill="black"/>
</svg>
