<svg width="9" height="14" viewBox="0 0 9 14" fill="none" xmlns="http://www.w3.org/2000/svg">
<path d="M8.96 7.23063C8.96 6.95063 8.74589 6.73651 8.46589 6.73651C8.18589 6.73651 7.97177 6.95063 7.97177 7.23063C7.97177 9.15769 6.40706 10.7224 4.48 10.7224C2.55294 10.7224 0.988236 9.15769 0.988236 7.23063C0.988236 6.95063 0.774118 6.73651 0.494118 6.73651C0.214118 6.73651 0 6.95063 0 7.23063C0 9.52004 1.71294 11.4471 3.98588 11.6942V13.0118H2.19059C1.91059 13.0118 1.69647 13.2259 1.69647 13.5059C1.69647 13.7859 1.91059 14 2.19059 14H6.76941C7.04942 14 7.26353 13.7859 7.26353 13.5059C7.26353 13.2259 7.04942 13.0118 6.76941 13.0118H4.97412V11.6942C7.24706 11.4471 8.96 9.52004 8.96 7.23063Z" fill="#85959E"/>
<path d="M4.48107 0C2.96578 0 1.73048 1.23529 1.73048 2.75059V7.21412C1.73048 8.74588 2.96578 9.96471 4.48107 9.98118C5.99637 9.98118 7.23166 8.74588 7.23166 7.23059V2.75059C7.23166 1.23529 5.99637 0 4.48107 0Z" fill="#85959E"/>
</svg>
