<svg width="16" height="16" viewBox="0 0 16 16" fill="none" xmlns="http://www.w3.org/2000/svg">
<g clip-path="url(#clip0_321_3851)">
<path d="M14.6666 3.79995L11.5999 1.19995L10.7333 2.19995L13.7999 4.79995L14.6666 3.79995ZM5.26659 2.26662L4.39992 1.26662L1.33325 3.79995L2.19992 4.79995L5.26659 2.26662ZM8.33325 5.33328H7.33325V9.33328L10.4666 11.2666L10.9999 10.4666L8.33325 8.86662V5.33328ZM7.99992 2.66662C4.66659 2.66662 1.99992 5.33328 1.99992 8.66662C1.99992 12 4.66659 14.6666 7.99992 14.6666C11.3333 14.6666 13.9999 12 13.9999 8.66662C13.9999 5.33328 11.3333 2.66662 7.99992 2.66662ZM7.99992 13.3333C5.39992 13.3333 3.33325 11.2666 3.33325 8.66662C3.33325 6.06662 5.39992 3.99995 7.99992 3.99995C10.5999 3.99995 12.6666 6.06662 12.6666 8.66662C12.6666 11.2666 10.5999 13.3333 7.99992 13.3333Z" fill="white"/>
</g>
<defs>
<clipPath id="clip0_321_3851">
<rect width="16" height="16" fill="white"/>
</clipPath>
</defs>
</svg>
