<svg width="228" height="228" viewBox="0 0 228 228" fill="none" xmlns="http://www.w3.org/2000/svg">
<g opacity="0.2">
<path d="M113.999 200.648C161.853 200.648 200.646 161.854 200.646 114.001C200.646 66.1467 161.853 27.3534 113.999 27.3534C66.1452 27.3534 27.352 66.1467 27.352 114.001C27.352 161.854 66.1452 200.648 113.999 200.648Z" fill="#002055"/>
<path d="M167.582 213.512C151.639 222.113 133.388 226.997 114 226.997C51.5935 226.997 1.00276 176.407 1.00276 114C1.00276 104.095 2.27498 94.4883 4.67046 85.3346" stroke="#002055" stroke-width="2" stroke-miterlimit="10" stroke-linecap="round" stroke-linejoin="round"/>
<path d="M36.4816 31.7904C56.7129 12.7009 83.988 1.00276 114 1.00276C176.407 1.00276 226.997 51.5935 226.997 114C226.997 126.456 224.98 138.439 221.263 149.641" stroke="#002055" stroke-width="2" stroke-miterlimit="10" stroke-linecap="round" stroke-linejoin="round"/>
<path d="M208.298 86.4341C210.849 95.1782 212.22 104.431 212.22 114.001C212.22 168.247 168.245 212.222 113.999 212.222C93.1966 212.222 73.9024 205.755 58.0214 194.721" stroke="#002055" stroke-width="2" stroke-miterlimit="10" stroke-linecap="round" stroke-linejoin="round"/>
<path d="M15.778 114.001C15.778 81.6801 31.3859 53.0088 55.4773 35.1109C71.8237 22.9659 92.0737 15.7794 113.999 15.7794C145.352 15.7794 173.272 30.4689 191.257 53.3377" stroke="#002055" stroke-width="2" stroke-miterlimit="10" stroke-linecap="round" stroke-linejoin="round"/>
</g>
<g clip-path="url(#clip0_321_5931)">
<path d="M114.005 163.365C103.704 163.384 93.407 163.423 83.106 163.408C80.9412 163.404 79.9576 162.168 79.9537 159.689C79.9421 149.965 79.9421 140.241 79.9382 130.517C91.2848 130.521 102.631 130.521 113.978 130.525L113.982 130.528C113.99 141.473 113.997 152.417 114.005 163.365Z" fill="#5793F5"/>
<path d="M114.005 163.365C113.997 152.421 113.99 141.477 113.982 130.528C125.348 130.528 136.718 130.532 148.084 130.532C148.072 140.125 148.06 149.717 148.045 159.309C148.041 162.54 147.154 163.427 143.928 163.423C133.957 163.408 123.981 163.384 114.005 163.365Z" fill="#1D5DC7"/>
<path d="M148.084 130.532C136.718 130.532 125.348 130.528 113.982 130.528L113.978 130.524C113.993 128.735 114.005 126.949 114.021 125.159C118.265 120.94 122.536 116.748 126.734 112.483C127.861 111.336 129.081 110.867 130.673 110.875C140.327 110.918 149.981 110.906 159.635 110.887C161.208 110.883 162.637 111.088 163.318 112.735C164 114.37 163.171 115.543 162.048 116.651C157.382 121.262 152.738 125.903 148.084 130.532Z" fill="#256ADB"/>
<path d="M114.021 125.159C114.005 126.949 113.993 128.735 113.978 130.525C102.631 130.521 91.2848 130.521 79.9382 130.517C75.1439 125.756 70.3458 120.994 65.5555 116.233C64.5602 115.245 64.1226 114.106 64.6842 112.735C65.2534 111.344 66.4346 110.906 67.7977 110.887C70.4349 110.848 73.076 110.875 75.7132 110.871C82.7923 110.871 89.8752 110.902 96.9542 110.848C98.7433 110.836 100.126 111.359 101.408 112.665C105.559 116.88 109.807 121.002 114.021 125.159Z" fill="#679CF4"/>
<path d="M125.104 101.078C124.395 101.078 123.683 101.12 122.978 101.07C121.657 100.973 120.836 100.249 120.608 98.9353C120.368 97.5367 120.712 96.3629 122.107 95.7236C123.446 95.1077 124.891 95.3827 126.293 95.2626C131.261 94.8326 135.916 93.6278 139.459 89.7537C144.583 84.1518 142.499 76.392 135.056 74.0366C133.364 73.502 131.587 73.1804 129.759 73.1765C127.904 73.1727 126.703 71.8361 126.765 70.1431C126.827 68.5354 128.047 67.3422 129.828 67.4197C137.008 67.7373 143.2 69.8177 146.612 76.8879C149.187 82.2302 148.064 89.0021 144.006 93.3643C138.871 98.8849 132.307 100.717 125.104 101.078Z" fill="#6B61B0"/>
<path d="M113.959 64.3049C115.38 64.15 116.054 65.8313 117.111 65.8197C118.164 65.8081 118.846 64.2003 120.248 64.2972C121.367 64.3747 122.238 64.8512 122.753 65.8236C123.307 66.8657 123.311 68.0008 122.525 68.8996C121.382 70.1974 120.162 71.441 118.865 72.58C117.847 73.4749 116.538 73.5562 115.496 72.6807C114.125 71.5301 112.867 70.2284 111.674 68.8918C110.88 68.0008 110.915 66.858 111.457 65.8158C111.972 64.8279 112.867 64.363 113.959 64.3049Z" fill="#6B61B0"/>
</g>
<defs>
<clipPath id="clip0_321_5931">
<rect width="98.8567" height="98.8567" fill="white" transform="translate(64.4363 64.2933) scale(1.00276)"/>
</clipPath>
</defs>
</svg>
