<svg width="24" height="24" viewBox="0 0 24 24" fill="none" xmlns="http://www.w3.org/2000/svg">
<path d="M13.8386 9.61694C13.6238 9.61694 13.4496 9.79106 13.4496 10.0059V17.3565C13.4496 17.5712 13.6238 17.7454 13.8386 17.7454C14.0534 17.7454 14.2275 17.5712 14.2275 17.3565V10.0059C14.2275 9.79106 14.0534 9.61694 13.8386 9.61694ZM9.24927 9.61694C9.03447 9.61694 8.86035 9.79106 8.86035 10.0059V17.3565C8.86035 17.5712 9.03447 17.7454 9.24927 17.7454C9.46412 17.7454 9.6382 17.5712 9.6382 17.3565V10.0059C9.6382 9.79106 9.46412 9.61694 9.24927 9.61694Z" fill="white"/>
<path d="M5.90465 8.54406V18.1263C5.90465 18.6927 6.11233 19.2245 6.47512 19.6062C6.65376 19.7955 6.86911 19.9464 7.10804 20.0497C7.34696 20.153 7.60444 20.2066 7.86474 20.207H15.2233C15.4836 20.2066 15.7411 20.1531 15.98 20.0498C16.219 19.9465 16.4343 19.7955 16.6129 19.6062C16.9758 19.2245 17.1834 18.6927 17.1834 18.1263V8.54406C17.9046 8.35263 18.3719 7.65591 18.2755 6.91591C18.1788 6.17602 17.5485 5.62258 16.8022 5.62243H14.811V5.13627C14.8121 4.93389 14.773 4.7333 14.696 4.54615C14.6189 4.359 14.5055 4.18902 14.3622 4.04608C14.2189 3.90315 14.0486 3.79012 13.8613 3.71355C13.6739 3.63697 13.4732 3.59839 13.2708 3.60003H9.81729C9.61489 3.59838 9.41418 3.63697 9.22681 3.71354C9.03945 3.79011 8.86917 3.90315 8.72585 4.04608C8.58258 4.18902 8.46913 4.359 8.39209 4.54615C8.31505 4.7333 8.27596 4.93389 8.27708 5.13627V5.62243H6.28587C5.5396 5.62258 4.90927 6.17602 4.81263 6.91591C4.71617 7.65591 5.18347 8.35263 5.90465 8.54406ZM15.2233 19.4292H7.86478C7.1998 19.4292 6.68249 18.8579 6.68249 18.1263V8.57824H16.4056V18.1263C16.4056 18.858 15.8883 19.4292 15.2233 19.4292ZM9.05492 5.13627C9.05365 5.036 9.07254 4.9365 9.11046 4.84367C9.14838 4.75083 9.20456 4.66657 9.27567 4.59586C9.34676 4.52512 9.43133 4.46937 9.52437 4.43193C9.61741 4.39448 9.71701 4.3761 9.81729 4.37787H13.2708C13.3711 4.3761 13.4707 4.39448 13.5637 4.43193C13.6568 4.46937 13.7413 4.52512 13.8124 4.59586C13.8835 4.66656 13.9397 4.75083 13.9776 4.84366C14.0156 4.9365 14.0344 5.036 14.0331 5.13627V5.62243H9.05492V5.13627ZM6.28587 6.40027H16.8023C17.1889 6.40027 17.5024 6.71371 17.5024 7.10033C17.5024 7.48696 17.1889 7.8004 16.8023 7.8004H6.28583C5.8992 7.8004 5.58577 7.48696 5.58577 7.10033C5.58577 6.71371 5.89924 6.40027 6.28587 6.40027Z" fill="white"/>
<path d="M11.5441 9.61694C11.3293 9.61694 11.1552 9.79106 11.1552 10.0059V17.3565C11.1552 17.5712 11.3293 17.7454 11.5441 17.7454C11.7589 17.7454 11.933 17.5712 11.933 17.3565V10.0059C11.933 9.79106 11.7589 9.61694 11.5441 9.61694Z" fill="white"/>
</svg>
