<svg width="276" height="22" viewBox="0 0 276 22" fill="none" xmlns="http://www.w3.org/2000/svg">
<path d="M88.974 18.2208C88.974 19.3163 89.8655 20.2078 90.961 20.2078C92.0565 20.2078 92.9481 19.3163 92.9481 18.2208C92.9481 17.1253 92.0565 16.2338 90.961 16.2338C89.8655 16.2338 88.974 17.1253 88.974 18.2208ZM91.6234 18.2208C91.6234 18.5857 91.326 18.8831 90.961 18.8831C90.5961 18.8831 90.2987 18.5857 90.2987 18.2208C90.2987 17.8558 90.5961 17.5584 90.961 17.5584C91.326 17.5584 91.6234 17.8558 91.6234 18.2208ZM100.896 18.2208C100.896 17.1253 100.005 16.2338 98.9091 16.2338C97.8136 16.2338 96.9221 17.1253 96.9221 18.2208C96.9221 19.3163 97.8136 20.2078 98.9091 20.2078C100.005 20.2078 100.896 19.3163 100.896 18.2208ZM98.2468 18.2208C98.2468 17.8558 98.5441 17.5584 98.9091 17.5584C99.274 17.5584 99.5714 17.8558 99.5714 18.2208C99.5714 18.5857 99.274 18.8831 98.9091 18.8831C98.5441 18.8831 98.2468 18.5857 98.2468 18.2208ZM87.0532 2.32468L88.1905 13.1301C88.241 13.6187 88.4712 14.0713 88.8363 14.3999C89.2015 14.7286 89.6756 14.9101 90.1669 14.9091H100.488C100.942 14.9071 101.382 14.7504 101.736 14.4648C102.089 14.1792 102.334 13.7818 102.431 13.338L104.022 5.91388C104.064 5.72078 104.062 5.52074 104.016 5.32859C103.97 5.13643 103.881 4.95708 103.757 4.80381C103.633 4.64985 103.476 4.5257 103.297 4.44052C103.119 4.35535 102.924 4.31132 102.726 4.31169H88.5945L88.3084 1.59345C88.2913 1.43056 88.2146 1.27975 88.0928 1.17015C87.9711 1.06055 87.8131 0.999931 87.6494 1H85.6623C85.4867 1 85.3182 1.06978 85.194 1.19399C85.0698 1.31821 85 1.48667 85 1.66234C85 1.838 85.0698 2.00647 85.194 2.13068C85.3182 2.25489 85.4867 2.32468 85.6623 2.32468H87.0532ZM102.726 5.63636L101.136 13.0605C101.07 13.3639 100.798 13.5844 100.487 13.5844H90.1669C90.0031 13.5848 89.8451 13.5244 89.7233 13.4149C89.6015 13.3053 89.5248 13.1545 89.5079 12.9916L88.7336 5.63636H102.726Z" fill="#848A94"/>
<g clip-path="url(#clip0_321_4456)">
<path d="M189.627 15.8873C191.753 12.9045 191.428 8.818 188.524 6.15605C187.198 4.93982 185.506 4.18266 183.679 3.97121C183.668 3.957 183.656 3.94327 183.643 3.93005C182.054 2.27898 179.77 1.33203 177.378 1.33203C172.826 1.33203 169 4.72368 169 9.06641C169 10.589 169.473 12.0486 170.371 13.3092L169.116 17.2497C169.078 17.3708 169.076 17.5006 169.111 17.6228C169.146 17.745 169.216 17.8541 169.313 17.9364C169.41 18.0187 169.529 18.0706 169.655 18.0854C169.781 18.1003 169.909 18.0774 170.023 18.0198L173.839 16.079C174.623 16.4166 175.454 16.638 176.315 16.7388C177.975 18.4849 180.271 19.3789 182.62 19.3789C183.841 19.3789 185.058 19.1301 186.159 18.6571L189.976 20.598C190.067 20.644 190.167 20.668 190.268 20.668C190.703 20.668 191.015 20.2441 190.882 19.8278L189.627 15.8873ZM174.099 14.7822C174.01 14.7399 173.913 14.7186 173.814 14.7199C173.716 14.7212 173.619 14.7452 173.531 14.7898L170.812 16.1721L171.7 13.3849C171.732 13.285 171.739 13.1788 171.72 13.0755C171.702 12.9723 171.658 12.8751 171.594 12.7925C170.74 11.6998 170.289 10.4114 170.289 9.06641C170.289 5.51246 173.469 2.62109 177.378 2.62109C178.953 2.62109 180.468 3.098 181.697 3.95682C177.557 4.3731 174.242 7.60667 174.242 11.6445C174.242 12.9004 174.564 14.1095 175.171 15.1927C174.804 15.0836 174.445 14.9463 174.099 14.7822ZM186.468 17.3679C186.38 17.3232 186.283 17.2993 186.184 17.298C186.086 17.2967 185.988 17.318 185.899 17.3603C184.894 17.8376 183.761 18.0898 182.62 18.0898C178.711 18.0898 175.531 15.1985 175.531 11.6445C175.531 8.09059 178.711 5.19922 182.62 5.19922C186.529 5.19922 189.71 8.09059 189.71 11.6445C189.71 12.9895 189.258 14.2779 188.405 15.3706C188.34 15.4532 188.297 15.5504 188.278 15.6536C188.26 15.7569 188.267 15.8631 188.299 15.963L189.186 18.7502L186.468 17.3679Z" fill="#848A94"/>
<path d="M179.999 12.2891C180.355 12.2891 180.644 12.0005 180.644 11.6445C180.644 11.2886 180.355 11 179.999 11C179.643 11 179.355 11.2886 179.355 11.6445C179.355 12.0005 179.643 12.2891 179.999 12.2891Z" fill="#848A94"/>
<path d="M182.577 12.2891C182.933 12.2891 183.222 12.0005 183.222 11.6445C183.222 11.2886 182.933 11 182.577 11C182.221 11 181.933 11.2886 181.933 11.6445C181.933 12.0005 182.221 12.2891 182.577 12.2891Z" fill="#848A94"/>
<path d="M185.155 12.2891C185.511 12.2891 185.8 12.0005 185.8 11.6445C185.8 11.2886 185.511 11 185.155 11C184.799 11 184.511 11.2886 184.511 11.6445C184.511 12.0005 184.799 12.2891 185.155 12.2891Z" fill="#848A94"/>
</g>
<path d="M264.217 10.6341C265.54 10.6341 266.686 10.1594 267.623 9.22276C268.559 8.28635 269.034 7.14057 269.034 5.8169C269.034 4.49363 268.559 3.34773 267.623 2.41097C266.686 1.47469 265.54 1 264.217 1C262.893 1 261.747 1.47469 260.811 2.41113C259.875 3.34757 259.4 4.49351 259.4 5.8169C259.4 7.14057 259.874 8.28651 260.811 9.22295C261.748 10.1592 262.894 10.6341 264.217 10.6341H264.217ZM261.64 3.23984C262.358 2.52129 263.201 2.17203 264.217 2.17203C265.232 2.17203 266.075 2.52129 266.794 3.23984C267.513 3.95851 267.862 4.80155 267.862 5.81687C267.862 6.83249 267.513 7.67542 266.794 8.39409C266.075 9.1128 265.232 9.46205 264.217 9.46205C263.202 9.46205 262.359 9.11264 261.64 8.39409C260.921 7.67557 260.572 6.83253 260.572 5.8169C260.572 4.80155 260.921 3.95851 261.64 3.23984ZM272.646 16.379C272.619 15.9893 272.564 15.5641 272.484 15.1153C272.402 14.663 272.298 14.2354 272.173 13.8447C272.043 13.4408 271.868 13.0419 271.65 12.6597C271.425 12.2629 271.16 11.9175 270.863 11.6332C270.552 11.3358 270.171 11.0967 269.731 10.9223C269.293 10.7488 268.807 10.661 268.287 10.661C268.083 10.661 267.885 10.7447 267.504 10.993C267.233 11.1695 266.961 11.3448 266.688 11.5188C266.426 11.6857 266.072 11.8421 265.633 11.9837C265.205 12.1221 264.771 12.1923 264.342 12.1923C263.914 12.1923 263.48 12.1221 263.052 11.9837C262.614 11.8422 262.259 11.6859 261.997 11.5189C261.694 11.325 261.419 11.148 261.181 10.9928C260.8 10.7446 260.602 10.6608 260.398 10.6608C259.878 10.6608 259.392 10.7488 258.954 10.9225C258.514 11.0966 258.133 11.3357 257.822 11.6334C257.525 11.9178 257.26 12.2631 257.035 12.6597C256.818 13.0419 256.642 13.4406 256.513 13.8448C256.388 14.2356 256.283 14.663 256.202 15.1153C256.121 15.5636 256.067 15.9888 256.04 16.3795C256.013 16.7614 256 17.1589 256 17.5605C256 18.6045 256.332 19.4497 256.986 20.073C257.633 20.6881 258.488 21 259.528 21H269.158C270.198 21 271.053 20.6881 271.7 20.073C272.354 19.4501 272.686 18.6047 272.686 17.5603C272.686 17.1574 272.672 16.7599 272.646 16.379ZM270.891 19.2238C270.464 19.6303 269.897 19.8279 269.158 19.8279H259.528C258.788 19.8279 258.221 19.6303 257.794 19.224C257.376 18.8253 257.172 18.281 257.172 17.5605C257.172 17.1857 257.184 16.8157 257.209 16.4605C257.233 16.112 257.283 15.7291 257.356 15.3223C257.428 14.9206 257.52 14.5435 257.629 14.2022C257.734 13.8749 257.877 13.5508 258.054 13.2386C258.223 12.941 258.418 12.6858 258.633 12.4801C258.834 12.2877 259.087 12.1302 259.386 12.0121C259.662 11.9028 259.972 11.843 260.309 11.834C260.35 11.8559 260.423 11.8975 260.541 11.9747C260.782 12.1317 261.06 12.3109 261.367 12.5069C261.713 12.7276 262.159 12.9269 262.691 13.0988C263.236 13.2749 263.791 13.3643 264.343 13.3643C264.894 13.3643 265.449 13.2749 265.994 13.099C266.527 12.9267 266.973 12.7276 267.319 12.5066C267.633 12.3058 267.903 12.1319 268.144 11.9747C268.263 11.8976 268.336 11.8558 268.377 11.834C268.714 11.843 269.024 11.9028 269.3 12.0121C269.598 12.1302 269.852 12.2878 270.053 12.4801C270.267 12.6856 270.462 12.9409 270.631 13.2388C270.809 13.5508 270.952 13.8751 271.057 14.202C271.166 14.5438 271.258 14.9207 271.33 15.3222C271.403 15.7297 271.452 16.1127 271.477 16.4606V16.4609C271.501 16.8148 271.514 17.1847 271.514 17.5605C271.514 18.2812 271.31 18.8253 270.892 19.2238H270.891Z" fill="#848A94"/>
<g clip-path="url(#clip1_321_4456)">
<path d="M18.3333 5.76999V2.66666C18.3333 2.44565 18.2455 2.23368 18.0893 2.0774C17.933 1.92112 17.721 1.83333 17.5 1.83333C17.279 1.83333 17.067 1.92112 16.9107 2.0774C16.7545 2.23368 16.6667 2.44565 16.6667 2.66666V4.63833L12.3308 1.71249C11.6432 1.24568 10.8312 0.996109 10 0.996109C9.16885 0.996109 8.35684 1.24568 7.66917 1.71249L1.83583 5.64916C1.27024 6.03043 0.807007 6.54484 0.486887 7.14716C0.166766 7.74947 -0.000431867 8.42123 8.37738e-07 9.10333V16.8333C8.37738e-07 19.1308 1.86917 21 4.16667 21H5.83333C6.05435 21 6.26631 20.9122 6.42259 20.7559C6.57887 20.5996 6.66667 20.3877 6.66667 20.1667V12.6667C6.66667 12.2075 7.04 11.8333 7.5 11.8333H12.5C12.96 11.8333 13.3333 12.2075 13.3333 12.6667V20.1667C13.3333 20.3877 13.4211 20.5996 13.5774 20.7559C13.7337 20.9122 13.9457 21 14.1667 21H15.8333C18.1308 21 20 19.1308 20 16.8333V9.10333C20.0003 8.45642 19.8499 7.81833 19.5606 7.23972C19.2712 6.6611 18.8511 6.15788 18.3333 5.76999Z" fill="#3580FF"/>
</g>
<defs>
<clipPath id="clip0_321_4456">
<rect width="22" height="22" fill="white" transform="translate(169)"/>
</clipPath>
<clipPath id="clip1_321_4456">
<rect width="20" height="20" fill="white" transform="translate(0 1)"/>
</clipPath>
</defs>
</svg>
