<svg width="14" height="14" viewBox="0 0 14 14" fill="none" xmlns="http://www.w3.org/2000/svg">
<g clip-path="url(#clip0_321_3473)">
<path d="M0.683432 13.9998C0.548211 13.9999 0.41602 13.9598 0.303581 13.8847C0.191141 13.8096 0.103503 13.7028 0.051753 13.5779C2.91181e-06 13.4529 -0.0135347 13.3155 0.0128524 13.1829C0.0392396 13.0502 0.104366 12.9284 0.199994 12.8328L12.8328 0.200002C12.961 0.0717866 13.1349 -0.000244141 13.3162 -0.000244141C13.4976 -0.000244141 13.6715 0.0717866 13.7997 0.200002C13.9279 0.328218 13.9999 0.502115 13.9999 0.68344C13.9999 0.864764 13.9279 1.03866 13.7997 1.16688L1.16687 13.7997C1.10344 13.8632 1.02808 13.9136 0.945119 13.948C0.862156 13.9823 0.773224 14 0.683432 13.9998Z" fill="#FF3C3C"/>
<path d="M13.3163 13.9998C13.2265 14 13.1376 13.9823 13.0546 13.948C12.9716 13.9136 12.8963 13.8632 12.8329 13.7997L0.200048 1.16688C0.0718324 1.03866 -0.000198364 0.864764 -0.000198364 0.68344C-0.000198364 0.502115 0.0718324 0.328218 0.200048 0.200002C0.328264 0.0717866 0.502161 -0.000244141 0.683486 -0.000244141C0.86481 -0.000244141 1.03871 0.0717866 1.16692 0.200002L13.7997 12.8328C13.8954 12.9284 13.9605 13.0502 13.9869 13.1829C14.0133 13.3155 13.9997 13.4529 13.948 13.5779C13.8962 13.7028 13.8086 13.8096 13.6961 13.8847C13.5837 13.9598 13.4515 13.9999 13.3163 13.9998Z" fill="#FF3C3C"/>
</g>
<defs>
<clipPath id="clip0_321_3473">
<rect width="14" height="14" fill="white"/>
</clipPath>
</defs>
</svg>
