<svg width="25" height="25" viewBox="0 0 25 25" fill="none" xmlns="http://www.w3.org/2000/svg">
<path d="M24.9999 12.7849C25.001 11.9331 24.9275 11.0828 24.7803 10.2433H12.7531V15.0573H19.6417C19.5008 15.8262 19.2024 16.5591 18.7647 17.212C18.3269 17.8648 17.7588 18.4239 17.0946 18.8558V21.9807H21.2058C23.613 19.8054 24.9999 16.5885 24.9999 12.7849Z" fill="#4285F4"/>
<path d="M12.7535 24.9998C16.1951 24.9998 19.093 23.8922 21.2062 21.9826L17.095 18.8577C15.9507 19.6181 14.477 20.0521 12.7535 20.0521C9.42695 20.0521 6.60348 17.8543 5.59384 14.8926H1.35864V18.1129C2.42012 20.1831 4.0478 21.9234 6.05994 23.1395C8.07209 24.3556 10.3895 24.9997 12.7535 24.9998Z" fill="#34A853"/>
<path d="M5.59321 14.8925C5.05945 13.3406 5.05945 11.66 5.59321 10.108V6.88766H1.35801C0.465053 8.62918 0 10.5512 0 12.5003C0 14.4493 0.465053 16.3714 1.35801 18.1129L5.59321 14.8925Z" fill="#FBBC04"/>
<path d="M12.7535 4.94853C14.5722 4.91941 16.3296 5.59291 17.6458 6.82345L21.2859 3.25589C18.9777 1.13111 15.9199 -0.0354268 12.7535 0.000820083C10.3895 0.000925678 8.07209 0.644985 6.05994 1.86109C4.0478 3.0772 2.42012 4.8175 1.35864 6.88769L5.59384 10.108C6.60348 7.14635 9.42695 4.94853 12.7535 4.94853Z" fill="#EA4335"/>
</svg>
