<svg width="163" height="166" viewBox="0 0 163 166" fill="none" xmlns="http://www.w3.org/2000/svg">
<path d="M158.622 33.1998C160.658 33.1998 162.311 34.8524 162.311 36.8887C162.311 38.925 160.658 40.5776 158.622 40.5776C156.586 40.5776 154.933 38.925 154.933 36.8887C154.933 34.8524 156.586 33.1998 158.622 33.1998Z" fill="#94D4FF"/>
<path d="M158.622 129.111C160.658 129.111 162.311 130.764 162.311 132.8C162.311 134.836 160.658 136.489 158.622 136.489C156.586 136.489 154.933 134.836 154.933 132.8C154.933 130.764 156.586 129.111 158.622 129.111Z" fill="#94D4FF"/>
<path d="M140.178 151.244C144.254 151.244 147.555 154.546 147.555 158.622C147.555 162.698 144.254 166 140.178 166C136.102 166 132.8 162.698 132.8 158.622C132.8 154.546 136.102 151.244 140.178 151.244Z" fill="#3256C1"/>
<path d="M132.8 0C134.836 0 136.489 1.65262 136.489 3.68888C136.489 5.72515 134.836 7.37777 132.8 7.37777C130.763 7.37777 129.111 5.72515 129.111 3.68888C129.111 1.65262 130.763 0 132.8 0Z" fill="#94D4FF"/>
<path d="M81.1555 11.0669C40.4081 11.0669 7.37784 44.0972 7.37784 84.8446C7.37784 125.592 40.4081 158.622 81.1555 158.622C121.903 158.622 154.933 125.592 154.933 84.8446C154.933 44.0972 121.903 11.0669 81.1555 11.0669Z" fill="#FFD400"/>
<path d="M81.1552 140.178C50.5965 140.178 25.822 115.403 25.822 84.8445C25.822 54.2858 50.5965 29.5112 81.1552 29.5112C111.714 29.5112 136.488 54.2858 136.488 84.8445C136.488 115.403 111.714 140.178 81.1552 140.178Z" fill="white"/>
<path d="M108.582 67.4035C111.464 70.2845 111.464 74.9546 108.582 77.8356L82.4984 103.923L72.0662 114.356L61.6303 103.923L53.8062 96.0956C52.3679 94.6569 51.6449 92.7682 51.6449 90.8795C51.6449 88.9908 52.3679 87.1021 53.8062 85.6631C56.6876 82.7821 61.3577 82.7821 64.2384 85.6631L72.0662 93.4872L98.1507 67.4035C99.593 65.9648 101.478 65.2418 103.367 65.2418C105.255 65.2418 107.14 65.9648 108.582 67.4035Z" fill="#07CC66"/>
<path d="M25.8214 158.622C27.8577 158.622 29.5103 160.275 29.5103 162.311C29.5103 164.347 27.8577 166 25.8214 166C23.7848 166 22.1326 164.347 22.1326 162.311C22.1326 160.275 23.7848 158.622 25.8214 158.622Z" fill="#94D4FF"/>
<path d="M16.6001 7.37797C21.6944 7.37797 25.8223 11.5058 25.8223 16.6002C25.8223 21.6945 21.6944 25.8224 16.6001 25.8224C11.5053 25.8224 7.37784 21.6945 7.37784 16.6002C7.37784 11.5058 11.5053 7.37797 16.6001 7.37797Z" fill="#3256C1"/>
<path d="M3.68888 36.8887C5.72515 36.8887 7.37777 38.5413 7.37777 40.5776C7.37777 42.6139 5.72515 44.2665 3.68888 44.2665C1.65225 44.2665 0 42.6139 0 40.5776C0 38.5413 1.65225 36.8887 3.68888 36.8887Z" fill="#94D4FF"/>
<path d="M3.68888 129.111C5.72515 129.111 7.37777 130.764 7.37777 132.8C7.37777 134.836 5.72515 136.489 3.68888 136.489C1.65225 136.489 0 134.836 0 132.8C0 130.764 1.65225 129.111 3.68888 129.111Z" fill="#94D4FF"/>
<path d="M125.422 84.8439C125.422 82.8066 123.77 81.1551 121.733 81.1551C119.696 81.1551 118.045 82.8066 118.045 84.8439C118.045 105.185 101.497 121.733 81.1557 121.733C79.1184 121.733 77.4669 123.385 77.4669 125.422V140.052C78.6864 140.132 79.9159 140.177 81.1557 140.177C82.3956 140.177 83.6247 140.132 84.8446 140.052V128.958C107.533 127.077 125.422 108.01 125.422 84.8439Z" fill="#D0DCE7"/>
<path d="M36.8892 84.8441C36.8892 86.8811 38.5407 88.533 40.5781 88.533C42.6151 88.533 44.267 86.8811 44.267 84.8441C44.267 64.5036 60.8149 47.9553 81.1558 47.9553C83.1928 47.9553 84.8447 46.3038 84.8447 44.2664V29.6363C83.6248 29.5559 82.3957 29.5109 81.1558 29.5109C79.916 29.5109 78.6865 29.5559 77.4669 29.6363V40.7299C54.7781 42.6108 36.8892 61.6779 36.8892 84.8441Z" fill="#D0DCE7"/>
</svg>
