<svg width="20" height="20" viewBox="0 0 20 20" fill="none" xmlns="http://www.w3.org/2000/svg">
<path d="M4.13793 17.931C4.13793 19.0717 5.06621 20 6.2069 20C7.34759 20 8.27586 19.0717 8.27586 17.931C8.27586 16.7903 7.34759 15.8621 6.2069 15.8621C5.06621 15.8621 4.13793 16.7903 4.13793 17.931ZM6.89655 17.931C6.89655 18.311 6.5869 18.6207 6.2069 18.6207C5.8269 18.6207 5.51724 18.311 5.51724 17.931C5.51724 17.551 5.8269 17.2414 6.2069 17.2414C6.5869 17.2414 6.89655 17.551 6.89655 17.931ZM16.5517 17.931C16.5517 16.7903 15.6234 15.8621 14.4828 15.8621C13.3421 15.8621 12.4138 16.7903 12.4138 17.931C12.4138 19.0717 13.3421 20 14.4828 20C15.6234 20 16.5517 19.0717 16.5517 17.931ZM13.7931 17.931C13.7931 17.551 14.1028 17.2414 14.4828 17.2414C14.8628 17.2414 15.1724 17.551 15.1724 17.931C15.1724 18.311 14.8628 18.6207 14.4828 18.6207C14.1028 18.6207 13.7931 18.311 13.7931 17.931ZM2.13793 1.37931L3.32207 12.6303C3.37469 13.1392 3.61432 13.6104 3.99453 13.9526C4.37474 14.2948 4.86845 14.4838 5.38 14.4828H16.1269C16.5999 14.4807 17.058 14.3175 17.4259 14.0201C17.7937 13.7228 18.0492 13.309 18.1503 12.8469L19.8069 5.11655C19.8504 4.91548 19.8482 4.70719 19.8003 4.50711C19.7524 4.30703 19.6602 4.12028 19.5303 3.96069C19.4013 3.80038 19.2378 3.67111 19.0521 3.58242C18.8663 3.49374 18.6631 3.44789 18.4572 3.44828H3.74276L3.44483 0.617931C3.42709 0.448316 3.34714 0.291287 3.22041 0.177167C3.09368 0.0630461 2.92916 -7.20245e-05 2.75862 6.16782e-08H0.689655C0.506747 6.16782e-08 0.331331 0.0726599 0.201995 0.201995C0.0726599 0.331331 0 0.506747 0 0.689655C0 0.872563 0.0726599 1.04798 0.201995 1.17732C0.331331 1.30665 0.506747 1.37931 0.689655 1.37931H2.13793ZM18.4572 4.82759L16.8014 12.5579C16.7331 12.8738 16.4497 13.1034 16.1262 13.1034H5.38C5.20948 13.1038 5.04488 13.0409 4.9181 12.9269C4.79132 12.8129 4.71139 12.6558 4.69379 12.4862L3.88759 4.82759H18.4572Z" fill="#848A94"/>
</svg>
