<svg width="23" height="22" viewBox="0 0 23 22" fill="none" xmlns="http://www.w3.org/2000/svg">
<path d="M16.0447 13.9353L15.4633 14.5141C15.4633 14.5141 14.0795 15.889 10.3037 12.1349C6.52791 8.38083 7.91173 7.00595 7.91173 7.00595L8.27717 6.64051C9.18055 5.74352 9.26616 4.30221 8.47778 3.24933L6.8678 1.09885C5.89158 -0.204468 4.00688 -0.376966 2.88884 0.734688L0.882751 2.728C0.329479 3.27999 -0.0410724 3.99299 0.00364929 4.7852C0.118648 6.81301 1.03608 11.174 6.15225 16.2621C11.5789 21.6568 16.6708 21.8715 18.7523 21.6772C19.4116 21.6159 19.984 21.2811 20.4453 20.8211L22.2597 19.0169C23.4864 17.7992 23.1414 15.7101 21.5723 14.8578L19.1318 13.5302C18.1019 12.9706 16.8497 13.1354 16.0447 13.9353Z" fill="white"/>
</svg>
