<svg width="20" height="20" viewBox="0 0 20 20" fill="none" xmlns="http://www.w3.org/2000/svg">
<g clip-path="url(#clip0_0_52)">
<path d="M18.3333 4.77V1.66667C18.3333 1.44565 18.2455 1.23369 18.0893 1.07741C17.933 0.921132 17.721 0.833335 17.5 0.833335C17.279 0.833335 17.067 0.921132 16.9107 1.07741C16.7545 1.23369 16.6667 1.44565 16.6667 1.66667V3.63833L12.3308 0.712501C11.6432 0.245687 10.8312 -0.00388336 10 -0.00388336C9.16885 -0.00388336 8.35684 0.245687 7.66917 0.712501L1.83583 4.64917C1.27024 5.03043 0.807007 5.54485 0.486887 6.14717C0.166766 6.74948 -0.000431867 7.42124 8.37738e-07 8.10334V15.8333C8.37738e-07 18.1308 1.86917 20 4.16667 20H5.83333C6.05435 20 6.26631 19.9122 6.42259 19.7559C6.57887 19.5996 6.66667 19.3877 6.66667 19.1667V11.6667C6.66667 11.2075 7.04 10.8333 7.5 10.8333H12.5C12.96 10.8333 13.3333 11.2075 13.3333 11.6667V19.1667C13.3333 19.3877 13.4211 19.5996 13.5774 19.7559C13.7337 19.9122 13.9457 20 14.1667 20H15.8333C18.1308 20 20 18.1308 20 15.8333V8.10334C20.0003 7.45642 19.8499 6.81834 19.5606 6.23972C19.2712 5.66111 18.8511 5.15789 18.3333 4.77Z" fill="#3580FF"/>
</g>
<defs>
<clipPath id="clip0_0_52">
<rect width="20" height="20" fill="white"/>
</clipPath>
</defs>
</svg>
